<?xml version="1.0" encoding="utf-8"?>
<!-- Generator: Adobe Illustrator 27.5.0, SVG Export Plug-In . SVG Version: 6.00 Build 0)  -->
<svg version="1.1" id="Layer_1" xmlns="http://www.w3.org/2000/svg" xmlns:xlink="http://www.w3.org/1999/xlink" x="0px" y="0px"
	 viewBox="0 0 758.6 179.7" style="enable-background:new 0 0 758.6 179.7;" xml:space="preserve">
<style type="text/css">
	.st0{fill:#000000;}
</style>
<g>
	<g>
		<path class="st0" d="M338.5,48.3v87.1h-20.4v-12.2c-5.4,9.4-15.5,14.4-28.4,14.4c-12.5,0-21.3-4.5-26.2-11.8
			c-4.3-6.6-5.6-13.8-5.6-25.8V48.3h20.4v45.1c0,15,4.3,26.4,18.9,26.4c14.2,0,20.9-11.4,20.9-26.4V48.3H338.5z"/>
		<path class="st0" d="M423.1,111.1c0,18.1-15.7,26.6-34.8,26.6c-18.7,0-35.5-11-35.5-31.6h19.8c0,11.4,7.1,15.5,16.8,15.5
			c8,0,14.2-2.6,14.2-10.1c0-8.2-8.8-8.8-27.1-15.9c-12.2-4.7-20.8-9.2-20.8-24.3c0-16.5,15-25.3,32.7-25.3
			c18.5,0,33.3,12.5,33.3,29.6H402c0-8.2-4.1-13.5-14-13.5c-6.9,0-12.5,3.4-12.5,9.5c0,7.5,8,8.4,23.9,14.6
			C411.5,90.9,423.1,95.2,423.1,111.1z"/>
		<path class="st0" d="M488.2,135.4c-3.2,0.6-9.2,1.1-15.1,1.1c-9.9,0-28.2-1.3-28.2-30.7V65.3H430v-17h14.8V21.9h20.4v26.4h20v17
			h-20v35.9c0,15.2,4.7,17,12.7,17c3.2,0,8.2-0.4,10.3-0.8L488.2,135.4L488.2,135.4z"/>
		<path class="st0" d="M510.6,1.3c8.4,0,15.2,6.7,15.2,15.1c0,8.2-6.7,15-15.1,15c-8.2,0-15-6.7-15-15
			C495.7,8.1,502.4,1.3,510.6,1.3z M500.5,48.3h20.4v87.1h-20.4L500.5,48.3L500.5,48.3z"/>
		<path class="st0" d="M601.3,80.1c-1.1-9.5-6.7-15.9-20.6-15.9c-15.7,0-23.4,12.9-23.4,27.7c0,15,7.1,27.7,24.7,27.7
			c12,0,16.8-5.2,19.5-14h20.4c-2.8,18.1-16.1,32.2-41.3,32.2c-28.4,0-43.6-22.1-43.6-45.8c0-23.6,15.2-45.8,43.4-45.8
			c28.4,0,40,17.2,41.3,34C621.7,80.1,601.3,80.1,601.3,80.1z"/>
		<path class="st0" d="M644.3,1.3c8.4,0,15.2,6.7,15.2,15.1c0,8.2-6.7,15-15.2,15c-8.2,0-15-6.7-15-15
			C629.4,8.1,636.1,1.3,644.3,1.3z M634.3,48.3h20.4v87.1h-20.4V48.3z"/>
		<path class="st0" d="M758.6,48.3v87.1h-20.4v-11.8c-5.4,8.8-16.8,14-26.9,14c-26.5,0-44.7-21.1-44.7-45.8S684.7,46,711.3,46
			c10.1,0,21.5,5.2,26.9,14V48.3H758.6z M738.2,91.8c0-15-10.1-27.7-25.8-27.7c-15.3,0-25.4,12.7-25.4,27.7s10.1,27.7,25.4,27.7
			C728.1,119.5,738.2,106.8,738.2,91.8z"/>
	</g>
	<path class="st0" d="M188.6,106l-0.4,0.6c-4.5,7-11.9,10.6-21.9,10.6c-16.5,0-26.8-11.4-28.3-31.4h57V85
		c0-24.5-13.7-39.8-35.8-39.8c-12.6,0-22.2,4.3-29.5,13.3c-3.1,3.8-5.4,8-7.2,12.6c-1.1-37.4-25.6-58.8-67.6-58.8H0V20h0.7
		c6.4,0.5,10.9,2,13,4.3c2.1,2.4,3.1,7.2,3.1,14.6v69.7c0,7.3-1,12-3.1,14.4s-6.5,3.9-13,4.4H0v7.7h55.5c33,0,55.1-13.5,63.4-37.8
		c0.8,10.9,4.4,20.2,11,27.5c7.2,8.2,17.1,12.4,29.4,12.4c9.8,0,17.8-2.8,23.9-8.2c5.9-5.2,9.9-11.6,11.9-19.1l0.1-0.6L188.6,106z
		 M155.6,54.7c9.6,0,14.5,7.4,14.7,21.9h-32.4C138.7,62.4,145,54.7,155.6,54.7z M40.7,22.2h11.9C82,22.2,96.2,39,96.2,73.6
		c0,33.7-14.1,51.4-40.9,51.4h-5.7c-6,0-9-3-9-9.1V22.2H40.7z"/>
	<g>
		<path class="st0" d="M225,30.1c8.4,0,15.1-6.7,15.1-15C240.1,6.7,233.4,0,225,0c-8.2,0-15,6.7-15,15.1
			C210,23.4,216.8,30.1,225,30.1z"/>
		<path class="st0" d="M202,55v6.1c2.4-0.3,4.5-0.5,6.2-0.5c5.7,0,8.1,2.4,8.1,8.7V121h0.1v32.2c0,6.5-2.2,8.8-6.6,8.8
			c-1.7,0-3.2-0.2-7.1-1.1v16.8c2.8,1.1,9.2,2.1,15.7,2.1c9,0,18.3-5.6,18.3-25.3V121h0.2V46.9h-6.8L202,55z"/>
	</g>
</g>
</svg>
